<svg width="120" height="32" viewBox="0 0 120 32" fill="none" xmlns="http://www.w3.org/2000/svg">
<g clip-path="url(#clip0_1_5719)">
<path d="M76.0583 24.9636C75.7743 25.2814 75.7794 25.6372 75.7466 25.9766C75.6379 27.1116 75.5466 28.2476 75.4287 29.3815C75.3221 30.4089 74.791 30.7175 73.8642 30.2889C73.3095 30.0326 72.764 29.7537 72.2309 29.4564C71.6075 29.1088 71.262 28.5264 71.1964 27.8477C71.0569 26.401 70.9759 24.9482 70.8939 23.4964C70.7688 21.2787 70.8919 19.0641 71.1174 16.8598C71.3389 14.6913 71.5583 12.5167 71.9274 10.3708C72.2483 8.50274 72.7763 6.67056 73.2172 4.82301C73.3208 4.38931 73.4233 3.95255 73.5668 3.53218C73.6888 3.17538 73.8549 2.83089 74.0313 2.49665C74.2476 2.08551 74.6577 1.89276 75.0699 1.78818C75.6102 1.65182 76.1741 1.52776 76.7267 1.53391C79.537 1.56569 82.2879 1.99016 84.9567 2.89856C86.1316 3.29842 87.2943 3.72391 88.379 4.33703C89.0168 4.6969 89.6043 5.12034 90.0769 5.68937C90.3773 6.05027 90.5844 6.45628 90.7064 6.91253C91.137 8.52734 91.4969 10.1555 91.6425 11.8246C91.6774 12.2194 91.6948 12.6151 91.7153 13.0109C91.7543 13.7378 91.4354 14.3109 90.8582 14.7006C90.4399 14.9825 89.9682 15.2152 89.4884 15.3711C88.0212 15.8448 86.5059 16.0939 84.9679 16.2149C82.861 16.38 80.7551 16.5625 78.5538 16.746C78.6696 16.9244 78.7414 17.0607 78.8368 17.1766C79.6037 18.1117 80.428 18.9924 81.3528 19.7736C82.9871 21.1537 84.7137 22.3994 86.6279 23.3693C87.8572 23.9916 89.1511 24.4407 90.4788 24.7965C91.0191 24.941 91.1227 25.1307 90.9105 25.6475C90.8612 25.7684 90.7977 25.8884 90.7167 25.9909C89.6873 27.3043 88.7092 28.6597 87.4973 29.8224C87.0995 30.2038 86.6914 30.3033 86.1911 30.1648C84.4317 29.6768 82.7359 29.0186 81.1611 28.0969C79.535 27.1454 77.9489 26.1263 76.3443 25.1369C76.2613 25.0856 76.1762 25.0364 76.0572 24.9657L76.0583 24.9636ZM77.2712 14.3571C77.4649 14.3366 77.5623 14.3325 77.6577 14.315C80.0363 13.9029 82.375 13.3205 84.6891 12.6367C85.1289 12.5065 85.5462 12.2942 85.9655 12.1015C86.1122 12.0338 86.2506 11.9282 86.3613 11.8103C86.6391 11.513 86.6299 11.2413 86.2905 11.0208C86.0035 10.8352 85.6795 10.6927 85.3534 10.5841C83.8473 10.0847 82.3186 9.65925 80.7469 9.42241C80.0138 9.31168 79.2746 9.22863 78.5353 9.17635C78.115 9.14661 78.0678 9.22248 77.9981 9.64592C77.8402 10.5902 77.6803 11.5345 77.5326 12.4808C77.4393 13.0806 77.3655 13.6824 77.2732 14.3571H77.2712Z" fill="#EE3C23"/>
<path d="M7.25066 31.3749C6.16796 31.3472 5.17652 31.3226 4.18405 31.2949C3.63142 31.2795 3.22541 31.0539 2.9332 30.5536C2.18475 29.272 1.68339 27.8951 1.262 26.4822C0.605819 24.2748 0.174177 22.0243 0.0224354 19.7236C-0.0513848 18.6112 0.0542191 17.5131 0.322842 16.4283C0.7186 14.831 1.60957 13.5319 2.80197 12.4441C3.77803 11.5531 4.8269 10.7432 5.82347 9.87475C7.18914 8.68543 8.74449 7.76883 10.2363 6.762C13.47 4.57918 16.7212 2.42199 19.9641 0.253527C20.5352 -0.127877 20.6521 -0.110448 20.8643 0.538554C21.0171 1.00608 21.1442 1.49514 21.1832 1.98317C21.2652 3.01973 21.3277 4.06244 21.3154 5.10207C21.3021 6.26064 20.9935 7.35461 20.3219 8.3235C20.0605 8.70081 19.7242 8.92842 19.27 9.08221C18.3339 9.398 17.4112 9.77222 16.5171 10.1936C13.6853 11.5296 10.9765 13.0767 8.45536 14.9437C7.10609 15.9434 5.85115 17.0394 4.86893 18.4102C4.65362 18.7106 4.50598 19.0787 4.40756 19.4365C4.26402 19.9594 4.54802 20.4331 5.06476 20.6084C5.26572 20.6761 5.48307 20.713 5.69531 20.7253C7.69358 20.8391 9.68877 20.8473 11.686 20.6515C14.686 20.3562 17.6398 19.8241 20.5465 19.0233C20.6418 18.9967 20.7372 18.9639 20.8346 18.9526C21.2519 18.9034 21.4498 19.0325 21.5584 19.4478C21.6035 19.6211 21.623 19.8066 21.6169 19.9861C21.5861 20.9642 21.4385 21.9269 21.1986 22.8753C21.1586 23.0322 20.933 23.6166 20.851 23.7591C19.9887 25.2652 19.4012 26.3828 18.3893 27.8335C17.5896 28.9378 16.754 29.7231 15.5616 30.2317C14.5947 30.6438 13.5736 30.8366 12.5473 31.016C10.7643 31.3277 8.96185 31.3287 7.25271 31.3759L7.25066 31.3749Z" fill="#EE3C23"/>
<path d="M102.619 26.1263C102.671 22.3932 103.185 19.0498 104.564 15.8786C104.794 15.3496 105.05 14.8267 105.349 14.3345C106.264 12.8274 107.856 12.1486 109.597 12.4552C111.507 12.7915 113.13 13.7091 114.631 14.882C114.904 15.0953 115.158 15.3342 115.433 15.5464C116.123 16.0816 116.413 16.8208 116.486 17.6544C116.55 18.3844 116.463 19.1011 116.233 19.8044C115.54 21.9103 114.491 23.8307 113.247 25.6536C112.519 26.7199 111.743 27.7462 110.777 28.6157C109.465 29.7968 108.026 30.7339 106.227 30.9564C105.754 31.0148 105.268 31.0374 104.796 30.9963C103.893 30.9174 103.124 30.2171 102.925 29.3272C102.835 28.9263 102.789 28.5131 102.754 28.102C102.691 27.3453 102.651 26.5866 102.62 26.1283L102.619 26.1263ZM107.221 19.7542C106.907 19.6486 106.68 19.7777 106.659 20.2002C106.64 20.5457 106.633 20.9066 106.642 21.3454C106.652 21.7842 106.696 22.4568 106.827 23.0484C106.952 23.6143 107.311 23.7958 107.868 23.6594C108.552 23.4923 109.187 23.196 109.677 22.6906C110.356 21.9903 110.384 21.3157 109.771 20.9302L107.221 19.7542Z" fill="#EE3C23"/>
<path d="M30.3757 26.2625C30.1296 26.4696 29.9256 26.6316 29.7318 26.8049C28.5722 27.8384 27.4219 28.8832 26.251 29.9054C25.8163 30.2847 25.3631 30.6538 24.8741 30.9563C23.9708 31.515 23.5371 31.39 22.9435 30.581C22.3796 29.8131 22.1673 28.9375 22.195 28.0117C22.2422 26.4338 22.5251 24.8958 23.0419 23.3989C23.7227 21.4253 24.8166 19.6864 25.9609 17.9578C27.4024 15.7791 29.3904 14.275 31.6348 13.0446C31.7793 12.9657 31.928 12.8908 32.0828 12.8345C32.457 12.696 32.8046 12.7555 33.0896 13.0395C34.1918 14.1386 35.2212 15.2992 36.0281 16.6403C36.2547 17.0176 36.2413 17.4369 36.1962 17.845C36.0804 18.9113 35.9317 19.9745 35.8117 21.0408C35.6159 22.7715 35.6036 24.5052 35.8169 26.2328C36.024 27.904 36.2741 29.5701 36.5069 31.2382C36.5797 31.7601 36.4003 31.998 35.8722 31.999C35.0838 32.001 34.3343 31.8052 33.6279 31.4587C33.3388 31.3172 33.1286 31.0906 32.9707 30.8056C32.2263 29.4614 31.4748 28.1203 30.7223 26.7813C30.629 26.6152 30.5121 26.4635 30.3778 26.2615L30.3757 26.2625ZM25.602 24.1012C25.6748 24.4088 25.8614 24.4724 26.1034 24.2612C26.2766 24.1095 26.4479 23.9587 26.617 23.8008C27.5213 22.954 28.4215 22.1419 29.3033 21.2274C29.6806 20.8696 29.7052 20.6071 29.453 20.1796C29.2171 19.7807 28.8491 19.5254 28.4502 19.3193C27.9407 19.0558 27.6926 19.1143 27.3532 19.5777C26.737 20.4215 26.2131 21.3217 25.8624 22.308C25.7035 22.754 25.5118 23.4963 25.6041 24.1012H25.602Z" fill="#EE3C23"/>
<path d="M61.2008 24.8211C61.534 24.817 61.3485 25.2179 61.3044 25.3532C60.8502 26.7517 60.1561 28.1112 59.709 29.5118C59.5358 30.0552 59.2026 30.415 58.6633 30.616C57.4032 31.0856 56.1103 31.0466 54.798 30.9533C52.2348 30.7708 49.8971 28.345 49.4327 25.9951C49.2276 24.9565 49.3025 23.9209 49.4439 22.8864C49.6849 21.1199 50.3616 19.5204 51.3089 18.0194C52.2389 16.5461 53.2898 15.1732 54.4934 13.9122C55.2317 13.1391 56.0806 12.6367 57.1561 12.5342C58.2798 12.4275 59.3994 12.3476 60.4883 12.7577C60.6277 12.81 60.7671 12.8602 60.9014 12.9238C61.9636 13.4241 62.3061 14.2279 62.0785 15.2604C61.815 16.4569 61.3854 17.5847 60.5621 18.5034C59.4814 19.7091 58.3505 20.8687 57.234 22.0426C56.9613 22.3297 56.6619 22.5922 56.3759 22.868C55.9883 23.2422 55.9688 23.4298 56.3472 23.8225C56.9859 24.4869 57.759 24.9339 58.6889 24.9893C59.2764 25.0241 59.871 24.9401 60.4626 24.9021C60.6851 24.8878 60.9066 24.8539 61.1988 24.8211H61.2008ZM55.1168 20.5498C55.3393 20.4411 55.5833 20.2648 55.7115 20.1787C56.9039 19.38 57.9087 18.3854 58.776 17.2464C59.0088 16.9419 58.9914 16.7696 58.6786 16.5481C58.5228 16.4374 58.328 16.3626 58.1404 16.3216C57.4657 16.1729 56.948 16.4251 56.5666 16.988C55.9596 17.8841 55.491 18.8427 55.247 19.9018C55.2152 20.0382 55.1322 20.3068 55.1168 20.5498Z" fill="#EE3C23"/>
<path d="M100.605 17.3787C100.548 17.757 100.464 18.2451 100.4 18.7362C100.167 20.5202 99.9513 22.3072 99.7083 24.0902C99.4766 25.7921 99.2193 27.49 98.9711 29.1889C98.9301 29.4667 98.8973 29.7466 98.8307 30.0183C98.6287 30.8437 98.0422 31.2138 97.2282 30.9729C96.3228 30.7043 95.4626 30.3075 94.6803 29.7743C94.219 29.4596 93.937 28.9879 93.7945 28.4384C93.5187 27.3711 93.4797 26.2853 93.5115 25.1924C93.5423 24.1517 93.572 23.111 93.5966 22.0704C93.6192 21.1117 93.6407 20.1531 93.651 19.1955C93.6551 18.8602 93.7658 18.5916 94.016 18.365C95.2442 17.2475 96.5792 16.2786 98.0361 15.483C98.3508 15.3107 98.7076 15.2092 99.0532 15.1026C99.2439 15.0431 99.4387 15.0646 99.6109 15.2123C100.103 15.6337 100.599 16.6436 100.605 17.3797V17.3787Z" fill="#EE3C23"/>
<path d="M102.591 8.96616C102.566 9.4142 102.366 9.68693 102.088 9.91454C101.232 10.6148 100.376 11.3151 99.5197 12.0153C99.0594 12.3916 98.6 12.7679 98.1397 13.1431C97.6158 13.5686 97.1359 13.6107 96.611 13.1924C95.9405 12.6582 95.3058 12.0779 94.6589 11.514C94.422 11.3079 94.4538 11.0464 94.5338 10.783C94.8055 9.88993 95.3212 9.15788 96.0051 8.53246C97.1524 7.4836 98.5549 6.97711 100.033 6.63775C100.419 6.54957 100.811 6.49011 101.202 6.42756C101.556 6.37117 101.747 6.45832 101.873 6.78641C102.116 7.41696 102.334 8.05776 102.555 8.69651C102.591 8.80211 102.585 8.92309 102.59 8.96513L102.591 8.96616Z" fill="#EE3C23"/>
<path d="M55.0122 5.41759C54.6821 4.76654 54.2925 4.31644 54.1213 4.12676C54.0679 4.06832 54.0095 4.01193 53.948 3.96169C53.5697 3.64693 53.3215 3.42855 53.0601 3.1753C52.9852 3.10353 52.9032 3.03894 52.8171 2.9805C52.0727 2.49759 52.5372 2.7006 51.473 2.18283C50.8383 1.87627 50.3769 1.68455 49.6069 1.47334C49.5588 1.46001 49.5054 1.44668 49.4552 1.43848C49.1035 1.37491 48.8821 1.31545 48.6555 1.29699C48.3038 1.26726 47.4908 1.38722 47.1945 1.57689C46.6695 1.91831 45.8667 2.97435 45.5233 3.46751C45.2054 3.92478 44.4395 5.32121 43.6531 7.34819C42.6525 9.83142 41.7451 12.2716 41.2304 15.0091C40.8582 15.251 40.3661 15.532 40.1108 15.7165C39.591 16.0897 39.0148 16.467 38.4119 16.9397C37.807 17.4144 37.6389 17.6892 37.4338 18.3874C37.2257 19.0856 37.562 19.5849 38.1402 20.1232C38.213 20.1908 38.2786 20.2544 38.3443 20.3159C38.3443 20.3159 38.3443 20.3159 38.3443 20.317C38.3463 20.319 38.3484 20.32 38.3504 20.3221C38.455 20.4195 38.5596 20.5118 38.6826 20.6051C39.389 21.2274 39.3347 21.251 40.6296 20.4492C40.6563 20.4328 40.686 20.4144 40.7137 20.398C40.7424 20.3856 40.768 20.3764 40.7936 20.3682C40.8162 21.3392 40.8931 22.3593 41.0284 23.4318C41.0459 23.5907 41.0643 23.7414 41.0889 23.8706C41.0961 23.9116 41.1033 23.9526 41.1105 23.9936C41.2263 24.8036 41.3668 25.6361 41.5544 26.5137L41.5616 26.4574C41.8927 28.0957 42.3439 29.6737 43.2748 30.8589C43.7065 31.4095 44.2611 31.6278 45.0629 31.5786C45.3377 31.5632 46.2686 31.3295 46.5342 31.2731C46.9986 31.1757 47.0376 30.7676 46.8613 30.4149C46.2543 29.2072 45.8185 27.7297 45.5899 26.4809C45.2177 23.7035 45.3715 20.4554 46.0144 17.2483C46.7772 16.8259 47.419 16.4968 47.8445 16.3245C48.026 16.2661 48.1992 16.2128 48.3602 16.1635C48.4433 16.141 48.5263 16.1164 48.6094 16.0887C48.9118 15.9985 49.1425 15.9339 49.2337 15.9093C49.2655 15.9011 49.2922 15.8929 49.3219 15.8795C49.4849 15.818 49.6551 15.7514 49.8366 15.6796C50.0017 15.6099 50.1432 15.4899 50.2498 15.3433C50.4097 15.1249 50.6179 14.9066 50.706 14.6738C50.9193 14.1038 51.2023 13.5675 51.3222 12.9698C51.3253 12.9462 51.3304 12.9247 51.3356 12.9001C51.4586 12.2121 50.8455 11.6257 50.1627 11.7692C50.1124 11.7795 50.0663 11.7877 50.0212 11.7959C49.527 11.8881 47.9921 12.2183 47.4139 12.3434C47.6651 11.6759 47.9409 11.0269 48.2372 10.3963C48.877 9.287 49.3014 8.29863 50.2313 7.30308C50.7009 6.79659 51.6093 6.2819 52.3055 6.3834C52.6305 6.43159 52.8417 6.60179 53.3236 7.50096C53.6168 8.04743 54.1264 8.45857 54.7344 8.58878C54.9128 8.62569 55.0379 8.62877 55.0973 8.57853C55.5269 8.22686 55.4736 6.31471 55.0122 5.41349V5.41759Z" fill="#EE3C23"/>
<path d="M117.832 28.9724C117.094 28.9724 116.495 29.5712 116.495 30.3094C116.495 31.0476 117.094 31.6463 117.832 31.6463C118.571 31.6463 119.169 31.0476 119.169 30.3094C119.169 29.5712 118.571 28.9724 117.832 28.9724ZM117.832 31.3798C117.242 31.3798 116.762 30.901 116.762 30.3094C116.762 29.7178 117.241 29.239 117.832 29.239C118.424 29.239 118.903 29.7178 118.903 30.3094C118.903 30.901 118.424 31.3798 117.832 31.3798ZM117.865 30.4806H117.672V30.9122H117.43V29.7362H117.866C117.981 29.7291 118.094 29.7619 118.187 29.8285C118.265 29.8941 118.307 29.9936 118.3 30.0961C118.303 30.1669 118.284 30.2366 118.248 30.2971C118.21 30.3565 118.154 30.4037 118.09 30.4304L118.344 30.9102V30.9235H118.085L117.865 30.4919M117.672 30.2971H117.867C117.918 30.3002 117.969 30.2827 118.008 30.2499C118.044 30.2151 118.062 30.1658 118.057 30.1166C118.061 30.0674 118.044 30.0192 118.01 29.9833C117.97 29.9485 117.917 29.9311 117.865 29.9362H117.671V30.2971H117.672Z" fill="#EE3C23"/>
</g>
<defs>
<clipPath id="clip0_1_5719">
<rect width="119.169" height="32" fill="white"/>
</clipPath>
</defs>
</svg>
